# xmcd
#
# Track frame offsets:
# 150
# 21055
# 33044
# 45121
# 59547
# 74217
# 92973
# 121213
# 139023
# 167537
#
# Disc length: 2424 seconds
#
#
# Revision: 0
# Processed by: cddbd v1.5.1PL2 Copyright (c) Steve Scherf et al.
# Submitted via: FreeRIP 2.92 
#
DISCID=8009760a
DTITLE=Biblical Proof of UFOs - 8-Track Demo(n)s
DYEAR=2005
DGENRE=Desert Rock
TTITLE0=Seaplane
TTITLE1=Identify, Isolate, Manipulate
TTITLE2=More and More
TTITLE3=Prodigal Son
TTITLE4=Whirling Dervish
TTITLE5=Vague, Unsettling Dream
TTITLE6=Time and Pressure
TTITLE7=Dirty Little Bomb
TTITLE8=Paranoid Aykroid
TTITLE9=Sarah
EXTD=
EXTT0=
EXTT1=
EXTT2=
EXTT3=
EXTT4=
EXTT5=
EXTT6=
EXTT7=
EXTT8=
EXTT9=
PLAYORDER=
